<?xml version="1.0" encoding="UTF-8" standalone="no"?><!DOCTYPE svg PUBLIC "-//W3C//DTD SVG 1.1//EN" "http://www.w3.org/Graphics/SVG/1.1/DTD/svg11.dtd"><svg width="100%" height="100%" viewBox="0 0 60 60" version="1.1" xmlns="http://www.w3.org/2000/svg" xmlns:xlink="http://www.w3.org/1999/xlink" xml:space="preserve" xmlns:serif="http://www.serif.com/" style="fill-rule:evenodd;clip-rule:evenodd;stroke-linejoin:round;stroke-miterlimit:2;"><g id="Group-21"><path id="Fill-6" d="M48.046,12.935l-1.618,1.622c8.002,8.771 8.002,22.213 0,30.983l1.618,1.622c8.905,-9.677 8.905,-24.587 0,-34.265l0,0.038Z" style="fill:#d4d3d7;"/><path id="Fill-8" d="M14.016,13.076c8.751,-8.021 22.162,-8.021 30.913,0l1.618,-1.622c-9.656,-8.926 -24.531,-8.926 -34.186,0l1.655,1.622Z" style="fill:#d4d3d7;"/><path id="Fill-10" d="M12.506,45.557c-7.991,-8.769 -7.991,-22.199 0,-30.968l-1.618,-1.621c-8.905,9.677 -8.905,24.587 0,34.264l1.618,-1.675Z" style="fill:#d4d3d7;"/><path id="Fill-12" d="M44.913,47.054c-8.751,8.02 -22.162,8.02 -30.913,0l-1.618,1.621c9.656,8.926 24.531,8.926 34.186,0l-1.655,-1.621Z" style="fill:#d4d3d7;"/><path id="Fill-14" d="M34.364,25.941c0,3.243 -5.059,2.848 -6.666,2.848l0,-5.713c1.607,0 6.666,-0.508 6.666,2.865m1.321,8.87c0,3.546 -6.062,3.14 -7.992,3.14l0,-6.292c1.93,0.006 7.992,-0.551 7.992,3.152m3.991,-10.152c-0.324,-3.383 -3.236,-4.518 -6.919,-4.864l0,-4.665l-2.848,0l0,4.573c-0.749,0 -1.515,0 -2.276,0.027l0,-4.6l-2.831,0l0,4.692l-1.812,0l-3.958,0l0,3.054c0,0 2.103,-0.038 2.071,0c0.788,-0.087 1.503,0.467 1.618,1.254l0,12.848c-0.035,0.558 -0.513,0.981 -1.069,0.947c-0.004,0 -0.007,0 -0.01,-0.001c0.038,0.033 -2.071,0 -2.071,0l-0.566,3.411l5.749,0l0,4.768l2.847,0l0,-4.698l2.276,0l0,4.676l2.853,0l0,-4.713c4.81,-0.292 8.165,-1.482 8.585,-5.995c0.34,-3.632 -1.364,-5.254 -4.087,-5.908c1.655,-0.843 2.696,-2.33 2.448,-4.806" style="fill:#fff;"/><g id="Group-18"><path id="Fill-16" d="M29.456,2.843c-14.993,0.009 -27.141,12.199 -27.132,27.227c0.009,15.028 12.171,27.204 27.165,27.195c14.983,-0.009 27.126,-12.183 27.132,-27.2c-0.018,-15.026 -12.173,-27.2 -27.165,-27.206l0,-0.016Zm0,56.757c-16.271,-0.003 -29.459,-13.226 -29.456,-29.535c0.003,-16.309 13.196,-29.528 29.467,-29.524c16.267,0.003 29.454,13.219 29.456,29.524c-0.017,16.304 -13.2,29.517 -29.467,29.535Z" style="fill:#fff;"/></g></g></svg>
